HIERARCHY
ROOT Hips
{
  OFFSET 3.88201 101.472 -137.614
  CHANNELS 6 Xposition Yposition Zposition Zrotation Xrotation Yrotation
  JOINT RightUpLeg
  {
    OFFSET -8.9458 -8.66707 0.101652
    CHANNELS 3 Zrotation Xrotation Yrotation
    JOINT RightLeg
    {
      OFFSET 0 -44.4227 1.3727
      CHANNELS 3 Zrotation Xrotation Yrotation
      JOINT RightFoot
      {
        OFFSET 0.253549 -42.0924 -1.46059
        CHANNELS 3 Zrotation Xrotation Yrotation
        JOINT RightToes
        {
          OFFSET 0.04 -4.41509 8.4991
          CHANNELS 3 Zrotation Xrotation Yrotation
          End Site
          {
            OFFSET -0.08 -0.137448 9.77979
          }
        }
      }
    }
  }
  JOINT Spine
  {
    OFFSET 0 11.8905 0
    CHANNELS 3 Zrotation Xrotation Yrotation
    JOINT Spine1
    {
      OFFSET 0 25.6574 0.127663
      CHANNELS 3 Zrotation Xrotation Yrotation
      JOINT HEad
      {
        OFFSET 0 8.73416 0.011341
        CHANNELS 3 Zrotation Xrotation Yrotation
        End Site
        {
          OFFSET -0.29 12.7742 2.51395
        }
      }
      JOINT LeftShoulder1
      {
        OFFSET 8.99 -0.362252 -0.22
        CHANNELS 3 Zrotation Xrotation Yrotation
        JOINT LeftArm
        {
          OFFSET 10.2827 -0.00338 0.322123
          CHANNELS 3 Zrotation Xrotation Yrotation
          JOINT LeftForeArm
          {
            OFFSET 32.7669 0.099144 -1.42434
            CHANNELS 3 Zrotation Xrotation Yrotation
            JOINT LeftHand
            {
              OFFSET 27.5643 0.085362 1.02216
              CHANNELS 3 Zrotation Xrotation Yrotation
              End Site
              {
                OFFSET 16.7443 -0.6 1.50291
              }
            }
          }
        }
      }
      JOINT RightShoulder
      {
        OFFSET -8.99 -0.362252 -0.22
        CHANNELS 3 Zrotation Xrotation Yrotation
        JOINT RightArm
        {
          OFFSET -10.2827 -0.00338 0.322123
          CHANNELS 3 Zrotation Xrotation Yrotation
          JOINT RightForeArm
          {
            OFFSET -32.8971 0.099144 -1.42434
            CHANNELS 3 Zrotation Xrotation Yrotation
            JOINT RightHand
            {
              OFFSET -27.4921 0.085362 1.02216
              CHANNELS 3 Zrotation Xrotation Yrotation
              End Site
              {
                OFFSET -16.6312 -0.6 1.50291
              }
            }
          }
        }
      }
    }
  }
  JOINT LeftUpLeg
  {
    OFFSET 8.9458 -8.66707 0.101652
    CHANNELS 3 Zrotation Xrotation Yrotation
    JOINT LeftLeg
    {
      OFFSET 0 -44.4227 1.3727
      CHANNELS 3 Zrotation Xrotation Yrotation
      JOINT LeftFoot
      {
        OFFSET -0.253549 -42.0924 -1.46059
        CHANNELS 3 Zrotation Xrotation Yrotation
        JOINT LeftToes
        {
          OFFSET -0.04 -4.41509 8.4991
          CHANNELS 3 Zrotation Xrotation Yrotation
          End Site
          {
            OFFSET 0.08 -0.047448 9.77979
          }
        }
      }
    }
  }
}
MOTION
Frames:	21
Frame Time:	0.0166667
3.88201 101.472 -137.614 0.485748 0.0285807 -4.6433 -1.51546 8.40591 0.106377 5.34974 31.9007 2.46403 0.232271 -4.69548 -0.157636 0.0462048 0.000533964 0.662642 -0.881688 3.28626 -0.36149 -2.16673 -0.435395 -0.11408 7.87543 0.508146 7.82813 7.95139e-016 0 -7.95139e-016 -33.9209 -79.0847 48.0136 0.940055 11.5099 4.11472 0.368473 9.90896 -0.00117927 -3.48807 0.709097 9.50224 98.1168 -23.224 30.2203 11.5157 12.2757 -1.71439 -0.369625 9.91382 0.00119887 -4.20902 -21.6226 0.302477 -4.65485 19.0678 24.3147 0.180219 3.18757 0.0865266 -2.75983e-011 5.62191e-011 -4.60226e-012 
3.95645 101.351 -135.446 1.12588 -0.29895 -3.93058 -2.35955 6.20095 -0.320271 5.27305 37.6146 2.40508 1.23635 -1.41719 -0.202869 0.0462048 0.000533964 0.662642 -0.893862 3.26535 -0.560125 -3.63651 -0.325896 -0.0175896 8.71801 0.49414 7.01305 -5.46658e-016 0 -0 -49.4896 -78.8455 31.8495 1.20464 11.4862 4.00826 0.368473 9.90896 -0.00117927 -2.87561 0.711096 8.48296 97.9788 -24.5634 28.4425 11.4032 12.232 -2.15874 -0.369625 9.91382 0.00119887 -5.42996 -20.8451 0.263123 -4.44052 20.8798 23.5472 0.335787 1.99354 0.0788779 1.79848 -0.253922 -0.0687855 
4.03332 101.239 -133.372 1.75757 -0.633128 -3.45892 -3.16551 3.81492 -0.447084 5.21056 43.3088 2.40341 1.84405 1.55935 -0.230054 0.0462048 0.000533964 0.662642 -1.00422 3.25249 -0.719032 -5.00138 -0.0520328 0.0885475 9.48859 0.365151 6.41079 -1.98785e-016 -3.97569e-016 -7.95139e-016 -63.6686 -77.631 17.1067 1.23457 11.483 3.99617 0.368473 9.90896 -0.00117927 -2.36319 0.712579 7.6397 97.841 -25.8349 26.8148 11.2532 12.1959 -2.55131 -0.369625 9.91382 0.00119887 -6.47775 -19.9971 0.473639 -4.26806 22.4563 22.8893 0.521036 0.913092 0.0726228 3.54757 -0.60812 -0.107988 
4.11921 101.116 -131.593 2.43408 -0.978981 -3.76808 -3.84741 0.783107 0.339472 5.1968 49.2506 2.64917 1.22648 3.97321 -0.20225 0.0462048 0.000533964 0.662642 -1.43846 3.26357 -0.770849 -6.18399 0.713311 0.23272 10.097 -0.0799027 6.5156 -9.93923e-017 3.97569e-016 -0 -75.0657 -75.3708 5.37728 0.563634 11.5448 4.26603 0.368473 9.90896 -0.00117927 -2.18005 0.719336 7.4393 97.9745 -26.8595 25.7091 10.9713 12.1882 -2.75533 -0.369625 9.91382 0.00119887 -7.12523 -19.0413 1.56586 -4.30635 23.4359 22.504 0.849874 0.173749 0.068561 5.39912 -1.31694 -0.0601535 
4.2041 101.085 -129.882 2.90087 -1.34401 -4.20281 -4.09233 -2.22429 1.37109 4.98106 54.5538 2.84481 0.246892 5.40024 -0.155221 0.0462048 0.000533964 0.662642 -1.91132 3.28336 -0.758813 -7.00367 1.6462 0.368515 10.5342 -0.696086 6.69718 7.45443e-016 -1.59028e-015 -0 -83.3593 -72.2754 -3.23022 -0.349293 11.6205 4.63279 0.368473 9.90896 -0.00117927 -2.03884 0.713816 7.18524 97.9749 -27.8698 24.7281 10.6943 12.1814 -2.97484 -0.369625 9.91382 0.00119887 -7.46508 -17.7954 2.6097 -4.50683 23.8612 22.3001 1.10121 -0.452678 0.0696049 6.70726 -2.01845 0.020754 
4.28137 101.294 -128.032 2.86155 -1.83087 -4.12579 -3.61989 -4.44338 2.02443 4.46565 58.2389 2.56011 -0.345987 5.0415 -0.11279 0.0462048 0.000533964 0.662642 -2.19695 3.3074 -0.689677 -7.17039 2.62274 0.462534 10.7276 -1.48382 6.31576 -1.59028e-015 -7.95139e-016 1.59028e-015 -89.0908 -68.1093 -9.3939 -1.24561 11.67 4.99197 0.368473 9.90896 -0.00117927 -1.64344 0.668956 6.06445 97.3486 -29.0461 23.5254 10.5979 12.1473 -3.38778 -0.369625 9.91382 0.00119887 -7.4159 -15.8582 2.62669 -4.90253 23.5047 22.3071 1.0071 -1.13776 0.082462 6.61291 -2.3615 0.0983963 
4.34731 101.587 -126.178 2.54683 -2.16296 -4.02241 -2.7604 -6.617 2.79809 4.02256 60.8601 1.70072 -1.00908 3.76032 -0.0753422 0.0462048 0.000533964 0.662642 -2.34325 3.31925 -0.605507 -6.91725 3.37002 0.503908 10.7168 -2.21519 5.89317 4.47266e-016 -1.59028e-015 7.95139e-016 -93.086 -63.9294 -14.0492 -1.98651 11.7067 5.28853 0.368473 9.90896 -0.00117927 -1.25385 0.618058 4.89353 96.4752 -30.3732 22.2664 10.469 12.1062 -3.93512 -0.369625 9.91382 0.00119887 -7.03103 -13.8916 2.47723 -5.35322 22.8381 22.3376 0.82243 -1.82383 0.0966324 5.89705 -2.56805 0.177216 
4.39242 101.861 -124.396 2.05117 -1.99971 -4.27042 -1.5917 -9.40458 4.17902 4.02908 62.6619 -0.174949 -2.05687 2.11206 -0.0462075 0.0462048 0.000533964 0.662642 -2.24445 3.29032 -0.570135 -6.34317 3.42878 0.453615 10.5141 -2.5856 5.83669 6.4605e-016 1.59028e-015 7.95139e-016 -96.5144 -60.8815 -18.4894 -2.27712 11.7292 5.40464 0.368473 9.90896 -0.00117927 -1.06878 0.594909 4.3928 95.5986 -31.9162 21.0144 10.123 12.066 -4.66533 -0.369625 9.91382 0.00119887 -6.34395 -12.5443 2.87146 -5.70639 22.2975 22.1168 0.713701 -2.54084 0.101148 5.12734 -2.72787 0.243191 
4.42738 102.11 -122.658 1.46321 -1.63392 -4.5551 -0.234587 -12.267 5.62695 4.14795 63.5379 -2.26268 -3.17886 0.221652 -0.0397724 0.0462048 0.000533964 0.662642 -2.13515 3.25261 -0.525045 -5.55766 3.23425 0.361831 10.21 -2.81701 5.84732 -2.98177e-016 -1.59028e-015 2.38542e-015 -99.5432 -58.0103 -22.6173 -2.32617 11.7434 5.42404 0.368473 9.90896 -0.00117927 -0.963058 0.574155 4.03782 94.6241 -33.6235 19.7335 9.65236 12.0346 -5.43407 -0.369625 9.91382 0.00119887 -5.58229 -11.4514 3.19759 -6.03699 21.7592 21.9353 0.676344 -3.19758 0.104092 4.08612 -2.88639 0.315391 
4.45502 102.286 -120.971 0.9043 -1.2174 -4.6926 1.01836 -14.9339 6.79452 3.91247 63.5265 -3.62474 -4.18507 -1.54538 -0.0752856 0.0462048 0.000533964 0.662642 -2.28934 3.2404 -0.41477 -4.67235 3.04109 0.261764 9.85861 -2.96091 5.76121 5.96354e-016 0 -7.95139e-016 -102.235 -54.8013 -26.3796 -2.21472 11.7576 5.37937 0.368473 9.90896 -0.00117927 -0.920207 0.541001 3.55408 93.5642 -35.488 18.3917 9.0689 12.0265 -6.12208 -0.369625 9.91382 0.00119887 -4.95275 -10.4921 2.92443 -6.4216 21.2147 22.122 0.808483 -3.68138 0.111483 2.50264 -3.10691 0.414842 
4.4894 102.415 -119.309 0.355374 -0.831766 -4.66876 2.15068 -17.3119 7.50532 3.22462 62.593 -4.31292 -5.04078 -3.35548 -0.141462 0.0462048 0.000533964 0.662642 -2.48323 3.21829 -0.293979 -3.78268 2.93185 0.165633 9.55252 -3.22695 5.58139 2.08724e-015 -1.59028e-015 7.95139e-016 -104.25 -51.2333 -29.3898 -2.03199 11.7629 5.30627 0.368473 9.90896 -0.00117927 -0.81818 0.496427 2.91216 92.3408 -37.4324 17.0295 8.43365 12.0363 -6.70347 -0.369625 9.91382 0.00119887 -4.41685 -9.58188 2.55265 -6.66683 20.7692 22.2726 0.969342 -4.08648 0.118544 1.10656 -3.42553 0.521804 
4.55449 102.505 -117.641 -0.166703 -0.618215 -4.35755 2.9758 -19.2343 7.26734 1.82552 60.7295 -4.04933 -5.61709 -5.44232 -0.247691 0.0462048 0.000533964 0.662642 -2.53461 3.15445 -0.211299 -3.06782 3.0834 0.104873 9.43248 -3.95095 5.21535 -1.49089e-015 0 -0 -105.28 -47.0598 -31.2471 -1.86826 11.7478 5.2409 0.368473 9.90896 -0.00117927 -0.454418 0.435972 1.93112 90.8541 -39.4157 15.674 7.79472 12.0683 -7.12684 -0.369625 9.91382 0.00119887 -4.07705 -8.59638 2.4497 -6.5546 20.5394 21.8982 1.05195 -4.47715 0.121267 0.171597 -3.99935 0.64474 
4.62337 102.562 -115.975 -0.654046 -0.549156 -3.90958 3.50634 -20.6861 6.57652 0.518144 57.8568 -3.60097 -6.0055 -7.23862 -0.352419 0.0462048 0.000533964 0.662642 -2.59223 3.07253 -0.129427 -2.38344 3.4676 0.0547625 9.38456 -4.8078 4.78705 1.98785e-016 1.59028e-015 7.95139e-016 -105.772 -42.6231 -32.5237 -1.80168 11.7278 5.2144 0.368473 9.90896 -0.00117927 -0.0574528 0.360822 0.79106 89.2409 -41.3152 14.3506 7.20106 12.1103 -7.34922 -0.369625 9.91382 0.00119887 -3.81626 -7.5415 2.46674 -6.27686 20.4684 21.5928 1.05273 -4.83052 0.123351 0.795882 -4.52864 0.720266 
4.6803 102.599 -114.308 -1.09561 -0.690464 -3.45857 3.80752 -21.5156 5.83445 -0.0864719 53.8209 -3.53259 -6.25494 -8.10762 -0.409127 0.0462048 0.000533964 0.662642 -2.75563 2.9863 -0.012491 -1.58657 4.20325 -0.00195892 9.3508 -5.53929 4.45068 5.51738e-033 -7.95139e-016 3.97569e-016 -105.995 -38.0889 -33.5004 -1.98891 11.7182 5.28939 0.368473 9.90896 -0.00117927 0.130649 0.268177 -0.393404 87.6556 -42.9434 13.121 6.75057 12.1502 -7.24225 -0.369625 9.91382 0.00119887 -3.55025 -6.33982 2.58697 -5.87935 20.5385 22.191 0.896871 -5.03054 0.128339 5.8881 -4.76507 0.653013 
4.71566 102.595 -112.64 -1.46507 -0.904347 -2.92945 3.87474 -21.9206 4.93377 -0.25615 48.8409 -3.68298 -6.33042 -8.49179 -0.437304 0.0462048 0.000533964 0.662642 -2.99014 2.89358 0.0951635 -0.851929 5.02638 -0.0562975 9.34247 -6.27741 4.02126 8.44835e-016 7.95139e-016 3.97569e-016 -105.867 -33.5748 -34.2191 -2.28427 11.7072 5.40759 0.368473 9.90896 -0.00117927 0.35411 0.166161 -1.60683 86.0484 -44.4505 11.9536 6.34175 12.1904 -7.01012 -0.369625 9.91382 0.00119887 -3.27897 -5.11579 2.7843 -5.56612 20.7596 22.4804 0.69132 -5.42097 0.132704 10.2781 -4.71177 0.546146 
4.71531 102.521 -110.985 -1.73713 -1.08352 -2.27565 3.69003 -22.0723 3.79602 -0.107907 43.0916 -4.00819 -6.16008 -8.69007 -0.441713 0.0462048 0.000533964 0.662642 -3.31454 2.79762 0.162862 -0.313286 5.73825 -0.107106 9.28524 -7.12385 3.28566 -3.47873e-016 -1.59028e-015 3.97569e-016 -105.294 -29.1503 -34.6769 -2.56152 11.6824 5.62493 0.368473 9.90896 -0.00117927 0.818349 0.0636701 -2.8 84.4076 -45.926 10.8731 5.89445 12.2286 -6.83325 -0.369625 9.91382 0.00119887 -2.95111 -3.97973 3.0699 -5.61664 21.2182 21.033 0.550987 -6.57247 0.134471 7.83373 -4.02055 0.458601 
4.67704 102.416 -109.297 -1.91141 -1.20115 -1.54534 3.36979 -21.8991 2.75327 0.320922 36.5543 -4.61571 -5.91646 -8.49618 -0.421888 0.0462048 0.000533964 0.662642 -3.66901 2.69591 0.185515 0.0447937 6.26205 -0.147808 9.33908 -7.91142 2.47898 -6.70898e-016 -1.59028e-015 -0 -104.483 -25.0279 -35.0247 -2.91895 11.6617 5.6615 0.368473 9.90896 -0.00117927 1.40175 -0.0441556 -3.95963 82.7157 -47.3711 9.74975 5.44459 12.2662 -6.65513 -0.369625 9.91382 0.00119887 -2.62122 -2.89621 3.3164 -5.77716 21.6761 19.3057 0.377093 -7.68828 0.132641 4.35934 -3.49701 0.428691 
4.58234 102.307 -107.523 -1.97175 -1.16005 -0.757658 3.04673 -21.3997 2.09407 0.850912 29.1163 -5.68811 -5.82001 -7.53972 -0.368326 0.0462048 0.000533964 0.662642 -4.02005 2.5834 0.13533 0.161096 6.37501 -0.170033 9.74686 -8.44262 1.81093 4.96962e-017 1.59028e-015 -4.96962e-016 -103.509 -21.4807 -35.2618 -3.42436 11.6557 5.20068 0.368473 9.90896 -0.00117927 2.10458 -0.163444 -5.07149 80.8803 -48.8471 8.43197 4.98751 12.3076 -6.47383 -0.369625 9.91382 0.00119887 -2.29957 -1.88824 3.31958 -5.96519 21.9006 18.5642 0.0543261 -8.002 0.123435 4.61304 -4.11589 0.549787 
4.466 102.191 -105.688 -1.95767 -1.06357 0.046485 2.63316 -20.5676 1.86554 1.45911 21.2523 -6.90638 -5.66141 -6.61194 -0.314116 0.0462048 0.000533964 0.662642 -4.30803 2.47083 0.0497628 0.129879 6.31633 -0.177688 10.2561 -8.90996 1.15178 -5.0628e-016 -1.59028e-015 1.2424e-016 -102.517 -18.3478 -35.5072 -4.04408 11.6723 4.40871 0.368473 9.90896 -0.00117927 2.76701 -0.281511 -6.0892 79.0158 -50.2459 6.94021 4.56489 12.3416 -6.30607 -0.369625 9.91382 0.00119887 -2.0259 -0.88891 3.32343 -6.09726 22.036 18.0162 -0.252992 -7.99322 0.112822 5.59619 -5.02151 0.714912 
4.37607 102.091 -103.805 -1.9055 -0.97465 0.8084 1.97231 -19.105 2.37943 2.51332 12.7186 -8.15866 -5.23615 -6.37191 -0.286689 0.0462048 0.000533964 0.662642 -4.40954 2.37109 -0.0386959 0.0584332 6.24746 -0.173542 10.6081 -9.50082 0.409249 3.23025e-016 -1.59028e-015 -0 -101.69 -15.6132 -35.9465 -4.78899 11.7261 3.29497 0.368473 9.90896 -0.00117927 3.12486 -0.384252 -6.9497 77.2489 -51.4744 5.18477 4.22183 12.3532 -6.1699 -0.369625 9.91382 0.00119887 -1.89051 0.181746 3.55504 -5.99283 22.0661 17.2173 -0.416699 -7.85029 0.105722 5.64625 -5.55244 0.827147 
4.25428 101.963 -101.86 -1.79139 -0.918152 1.56263 1.27991 -17.8747 3.08805 3.35183 5.57064 -9.41255 -4.73632 -6.84592 -0.290865 0.0462048 0.000533964 0.662642 -4.48138 2.27268 -0.142994 -0.151129 6.17888 -0.152918 11.0255 -10.0329 -0.323679 3.72721e-016 -3.18055e-015 -1.98785e-016 -100.844 -13.2011 -36.3685 -5.5865 11.8042 2.01198 0.368473 9.90896 -0.00117927 3.49676 -0.482791 -7.68881 75.5062 -52.5396 3.3806 3.94409 12.3581 -6.05958 -0.369625 9.91382 0.00119887 -1.81063 1.25827 3.8601 -5.81804 22.2104 16.3708 -0.443476 -7.68064 0.101643 5.49143 -6.10109 0.947717 
